##     ## ##     ##  ######  ########    ###    ##    ##  ######   ##     ## 
###   ### ##     ## ##    ##    ##      ## ##   ###   ## ##    ##   ##   ##  
#### #### ##     ## ##          ##     ##   ##  ####  ## ##          ## ##   
## ### ## ##     ##  ######     ##    ##     ## ## ## ## ##   ####    ###    
##     ## ##     ##       ##    ##    ######### ##  #### ##    ##    ## ##   
##     ## ##     ## ##    ##    ##    ##     ## ##   ### ##    ##   ##   ##  
##     ##  #######   ######     ##    ##     ## ##    ##  ######   ##     ## 

Video

Codec ID/Hint : XviD
Duration : 1h 52mn
Bit rate : 751 Kbps
Width : 576 pixels
Height : 304 pixels
Display aspect ratio : 1.895
Frame rate : 25.000 fps
Color space : YUV
Chroma subsampling : 4:2:0
Bit depth : 8 bits
Scan type : Progressive
Bits/(Pixel*Frame) : 0.172
Stream size : 606 MiB (87%)
Writing library : XviD 57


Audio

ID : 1
Format : MPEG Audio
Format version : Version 1
Format profile : Layer 3
Mode : Joint stereo
Codec ID : 55
Codec ID/Hint : MP3
Duration : 1h 52mn
Bit rate mode : Variable
Bit rate : 102 Kbps
Nominal bit rate : 112 Kbps
Channel(s) : 2 channels
Sampling rate : 48.0 KHz
Stream size : 82.6 MiB (12%)
Alignment : Aligned on interleaves
Interleave, duration : 24 ms (0.60 video frame)
Interleave, preload duration : 544 ms
Writing library : LAME3.97



IMDB 
http://www.imdb.com/title/tt1125929/



Plot:

LOVE RANCH is a bittersweet love story that turns explosive when the players in a romantic triangle lose control and cross the line. Set in the late–1970s, depicting larger than life personalities living on the edge, LOVE RANCH stars Helen Mirren and Joe Pesci as Grace Bontempo and Charlie Bontempo, the husband and wife team who own and run Nevada’s first legalized brothel. Their lives are suddenly altered when Armando Bruza, a husky, world famous heavy weight boxer from South ...


Screens:
 
http://leetleech.org/images/70343783560076662180.jpg


Shout out to noir and all my freinds @ 1337x.org and extratorrent

##     ## ##     ##  ######  ########    ###    ##    ##  ######   ##     ## 
###   ### ##     ## ##    ##    ##      ## ##   ###   ## ##    ##   ##   ##  
#### #### ##     ## ##          ##     ##   ##  ####  ## ##          ## ##   
## ### ## ##     ##  ######     ##    ##     ## ## ## ## ##   ####    ###    
##     ## ##     ##       ##    ##    ######### ##  #### ##    ##    ## ##   
##     ## ##     ## ##    ##    ##    ##     ## ##   ### ##    ##   ##   ##  
##     ##  #######   ######     ##    ##     ## ##    ##  ######   ##     ## 